<svg xmlns="http://www.w3.org/2000/svg" viewBox="0 0 1197.27 200"><defs><style>.cls-1{fill:#01b7f2}.cls-3{fill:#4d4f4e}</style></defs><g id="Layer_2" data-name="Layer 2"><g id="Layer_1-2" data-name="Layer 1"><g id="text-shapes"><path class="cls-1" d="m312.44 13.31-3.66 24.46h-41v159.51H239V37.77h-41.73V13.31Z"/><path class="cls-1" d="M353.44 92.66a27 27 0 0 0-7.8 6.66 35.56 35.56 0 0 0-5.64 10.19 38.5 38.5 0 0 0-2.19 13.32v74.45H310V128.8a160.08 160.08 0 0 0-1.95-27.31 140.82 140.82 0 0 0-4.15-17.79 58.41 58.41 0 0 0-5.9-12.78l22-9.78a72.57 72.57 0 0 1 4.64 7.34 87.3 87.3 0 0 1 3.9 9 67.88 67.88 0 0 1 3.18 12.23q4.89-15.79 14.16-22.71a34.22 34.22 0 0 1 21-6.93 35.49 35.49 0 0 1 10.49 1.5c3.25 1 4.79 1.49 4.63 1.49l-7.8 30.17a14.86 14.86 0 0 0-2.81-1.5c-2-1-5.09-1.48-9.15-1.49a17.93 17.93 0 0 0-8.8 2.42ZM488.63 131.79a170.92 170.92 0 0 0 1.83 27.31 127.55 127.55 0 0 0 4 17.8 50.92 50.92 0 0 0 5.85 12.77l-21.71 9.79a45.06 45.06 0 0 1-5.86-8.43 70.27 70.27 0 0 1-4.15-10.46 59 59 0 0 1-2.41-14.57q-4.15 16.31-13.3 24.59t-24.77 8.29q-11.48 0-19.89-4.75a39.7 39.7 0 0 1-14-13.59 64.55 64.55 0 0 1-8.29-21.33 131.66 131.66 0 0 1-2.69-27.72 92.59 92.59 0 0 1 4.27-28.67 70.13 70.13 0 0 1 12-22.69 55.81 55.81 0 0 1 18.42-14.94 51.7 51.7 0 0 1 23.67-5.44A100.17 100.17 0 0 1 456.78 61q7.94 1.22 14.77 2.58c4.55.91 8.42 1.76 11.59 2.58s5 1.31 5.49 1.49ZM444 172.55a40.47 40.47 0 0 0 8.91-12.09 70.58 70.58 0 0 0 5.86-17.12 93.16 93.16 0 0 0 2.07-19.7V84.51c-1.63-.54-4.07-1.18-7.32-1.9a41.21 41.21 0 0 0-8.78-1.09q-9.28 0-15.26 3.53a27 27 0 0 0-9.63 9.79 43.83 43.83 0 0 0-5.13 14.94 115.14 115.14 0 0 0-1.46 19q0 9.53.48 18.21a65.58 65.58 0 0 0 2.57 15.49 25.39 25.39 0 0 0 6 10.73q3.9 3.94 10.49 3.94a16.37 16.37 0 0 0 11.2-4.6ZM619.91 62l.49 2.17c.16 1.63.41 3.76.73 6.39s.61 5.61.86 9 .36 6.75.36 10.19q0 30.16-4 51t-12.2 33.7q-8.15 12.92-20.75 18.61t-29.64 5.71q-19.29 0-27.46-12.36t-8.17-34.11V62H548v89.4q0 11.41 3.66 18.48t12.39 7q8.79 0 14.64-7.34t9.31-19.13a149.86 149.86 0 0 0 4.88-26.91q1.46-15.07 1.46-30.57 0-5.7-.36-11.27t-1-9.92c-.41-2.9-.69-5.25-.85-7.07l-.52-2.67ZM646.39 100.81a68.18 68.18 0 0 1 12.44-23.23 51.66 51.66 0 0 1 18.67-14.13 56.57 56.57 0 0 1 23.18-4.75q11 0 18.67 3a34 34 0 0 1 12.57 8.16 32.16 32.16 0 0 1 7.2 12.22 48.55 48.55 0 0 1 2.32 15.22 37.85 37.85 0 0 1-4.89 18.62 47.73 47.73 0 0 1-14 15.48 73.37 73.37 0 0 1-22.11 10.6 105.39 105.39 0 0 1-29 4.22 76.11 76.11 0 0 0 2.28 11.78 31.07 31.07 0 0 0 4.63 9.78 21.59 21.59 0 0 0 7.94 6.66 27.13 27.13 0 0 0 12.2 2.44 52.39 52.39 0 0 0 11.51-1.34 85.7 85.7 0 0 0 11.22-3.26q6.1-2.17 12-4.89l7.32 19.29a98 98 0 0 1-13.67 6.25 106.53 106.53 0 0 1-14.64 4.35 78.61 78.61 0 0 1-17.57 1.9q-14.14 0-24.16-4.75A42.33 42.33 0 0 1 654.07 181a58 58 0 0 1-9.27-20.93 117.14 117.14 0 0 1-2.93-27.17q0-18.21 4.52-32.09Zm38.8-16.71a30.47 30.47 0 0 0-8.42 10.9 55.07 55.07 0 0 0-4.52 15 128.19 128.19 0 0 0-1.58 16.71 70.39 70.39 0 0 0 19.89-3.4 43.43 43.43 0 0 0 13.3-7.06 26.92 26.92 0 0 0 7.44-9.11 22.75 22.75 0 0 0 2.32-9.78q0-7.87-4.15-12.63a13.88 13.88 0 0 0-11-4.76q-8.02-.07-13.28 4.13ZM770 189.81q-6.59-8.56-6.59-21.88V5.71L791.21 0v164.94c0 4.18.74 7.07 2.2 8.7a8.06 8.06 0 0 0 6.34 2.45 42.06 42.06 0 0 0 4.76-.27 28.23 28.23 0 0 0 4.27-.82c1.47-.36 2.77-.72 3.91-1.09l3.41 19.57a55.17 55.17 0 0 1-7.07 2.44 50.39 50.39 0 0 1-8.06 1.77 73.54 73.54 0 0 1-10.49.68q-13.9 0-20.48-8.56ZM970.08 197.28v-88.59q0-11.4-3.17-18.07t-11-6.65a18.26 18.26 0 0 0-9.4 2.85 29.5 29.5 0 0 0-8.66 8.29 46.41 46.41 0 0 0-6.34 13 54.92 54.92 0 0 0-2.42 16.89v72.28h-27.58v-88.59q0-11.4-3.17-18.07t-11-6.65a17.42 17.42 0 0 0-9.64 3.12 29.61 29.61 0 0 0-8.54 9.11 52.61 52.61 0 0 0-6.1 14.53 73.71 73.71 0 0 0-2.32 19.16v67.39h-27.8V128.8a160.12 160.12 0 0 0-2-27.31 140.82 140.82 0 0 0-4.15-17.79A57.71 57.71 0 0 0 821 70.92l22-9.78a52.84 52.84 0 0 1 4.88 7.34 75.23 75.23 0 0 1 3.9 9.37A79.79 79.79 0 0 1 855 90.49q6-16.3 17.16-23.49a42.65 42.65 0 0 1 23.55-7.2q12.44 0 19.4 7.07a43.72 43.72 0 0 1 10.37 18.2q6.59-13.57 17-19.43a44 44 0 0 1 21.84-5.84q9.51 0 16 3.4a26.13 26.13 0 0 1 10.25 9.51A44.25 44.25 0 0 1 996 87.36a97.76 97.76 0 0 1 1.71 19.16v90.76ZM1117.23 77.17q12.68 18.49 12.69 50.82a112.82 112.82 0 0 1-3.42 28.4 67.81 67.81 0 0 1-10.37 22.82 50.41 50.41 0 0 1-17.45 15.22q-10.5 5.56-24.4 5.57t-24-4.76a43.11 43.11 0 0 1-16.71-13.72 59.58 59.58 0 0 1-9.64-21.74 124 124 0 0 1-3-28.8 114 114 0 0 1 3.41-28.67 68 68 0 0 1 10.37-22.83 50.38 50.38 0 0 1 17.45-15.21q10.48-5.58 24.4-5.57 27.98 0 40.67 18.47Zm-54.79 7.88a23.17 23.17 0 0 0-7.07 9.92 58.14 58.14 0 0 0-3.54 15 162.83 162.83 0 0 0-1 18.34 156.74 156.74 0 0 0 1.1 19 55.25 55.25 0 0 0 4 15.63 25.88 25.88 0 0 0 7.93 10.46q5 3.81 12.81 3.8 7.08 0 11.59-3.53a23.2 23.2 0 0 0 7.08-9.92 58.5 58.5 0 0 0 3.54-14.81 160.36 160.36 0 0 0 1-18.2 156.74 156.74 0 0 0-1.1-19 57.6 57.6 0 0 0-4-15.76 25.8 25.8 0 0 0-7.93-10.59q-5-3.81-12.82-3.81-7.08-.06-11.59 3.47ZM1179.7 6.79c2.76 3.45 4.14 7.88 4.14 13.32s-1.42 10-4.27 13.58-7 5.44-12.56 5.44q-7.82 0-12.08-5.3a19.91 19.91 0 0 1-4.27-12.91q0-8.42 4.27-13.86t12.81-5.43q7.8 0 11.96 5.16Zm-19.53 183q-6.83-8.56-6.83-22.15V62h27.82v103c0 4.18.57 7 1.71 8.43a6.09 6.09 0 0 0 5.12 2.17h2.08a8 8 0 0 0 2.07-.27 10.19 10.19 0 0 0 2.2-.27l2.93 19.56a17.94 17.94 0 0 1-4.4 1.91 30.39 30.39 0 0 1-5.49 1.36 46.32 46.32 0 0 1-7.44.54q-12.95-.06-19.77-8.62Z"/></g><g id="favicon"><path d="M160.1 99.19c-5.78 17.62-19.19 25.93-33.31 38.06-14.41 11.2-29.51 26.22-45.49 35.75s-31.08 7.19-45.49-9.62C21.7 147.47 8.28 117.08 2.5 92-3.28 66.19.94 53.36 15.34 44c7.12-4.8 16.66-9.1 27.94-13.71s24.31-9.26 38-12 26.75-3.24 38 .12a54.49 54.49 0 0 1 27.93 19.43c14.45 18.55 18.67 44.42 12.89 61.35Z" fill="#7db921"/><path class="cls-3" d="m54.03 109.29-19.04-.62 14.27 9.99 4.77-9.37zM62.99 116.75l4.06 18.61-12.41-12.22 8.35-6.39zM85.62 61.75l-49.48-8.17a2.56 2.56 0 0 0-1.77 4.71l38.47 23.78ZM104.14 77.16l17 47.18a2.56 2.56 0 0 1-4.31 2.59L86.48 93.42Z"/><path class="cls-3" d="m112.27 59.67-2.53 12.63a8.26 8.26 0 0 1-2.95 4.84l-49.47 44.68a4.81 4.81 0 0 1-7.34-6.1L84.93 59a8.33 8.33 0 0 1 4.23-3.79l12-4.78A8.25 8.25 0 0 1 111.88 55a8.15 8.15 0 0 1 .43 4.68Z"/><path class="cls-3" d="m112.27 59.67-2.53 12.63a8.26 8.26 0 0 1-2.95 4.84l-49.47 44.68A4.82 4.82 0 0 1 51 122l58.69-70.09a8.14 8.14 0 0 1 2.58 7.76Z"/></g></g></g></svg>