<svg xmlns="http://www.w3.org/2000/svg" viewBox="0 0 1253 200"><defs><style>.cls-1{fill:#01b7f2}.cls-3{fill:#4d4f4e}.cls-4{fill:#383838}</style></defs><g id="Layer_2" data-name="Layer 2"><g id="Layer_1-2" data-name="Layer 1"><g id="text-shapes"><path class="cls-1" d="m325.78 13.35-4.09 24.52h-45.77v160h-32.16v-160h-46.59V13.35Z"/><path class="cls-1" d="M371.56 92.92a29.45 29.45 0 0 0-8.72 6.67 34.91 34.91 0 0 0-8.72 23.57v74.66h-31.06v-68.66a145.32 145.32 0 0 0-2.18-27.39 127.86 127.86 0 0 0-4.63-17.85 56 56 0 0 0-6.54-12.8l24.52-9.81a72.06 72.06 0 0 1 5.18 7.35 85.75 85.75 0 0 1 4.36 9 62.1 62.1 0 0 1 3.54 12.26q5.44-15.8 15.8-22.75a41 41 0 0 1 23.44-7 44.11 44.11 0 0 1 11.71 1.5c3.63 1 5.35 1.5 5.18 1.5l-8.72 30.24a17.31 17.31 0 0 0-3.13-1.5c-2.28-1-5.68-1.5-10.22-1.5a21.68 21.68 0 0 0-9.81 2.51ZM522.51 132.15a154.13 154.13 0 0 0 2 27.39 117.66 117.66 0 0 0 4.5 17.84 49.37 49.37 0 0 0 6.54 12.81L511.34 200a45.78 45.78 0 0 1-6.54-8.45 67.14 67.14 0 0 1-4.63-10.49 53.61 53.61 0 0 1-2.73-14.57q-4.63 16.33-14.85 24.65t-27.66 8.31q-12.81 0-22.2-4.76a42.55 42.55 0 0 1-15.67-13.63 61.18 61.18 0 0 1-9.26-21.39 118.62 118.62 0 0 1-3-27.79 84.23 84.23 0 0 1 4.77-28.75 68.19 68.19 0 0 1 13.35-22.75 61.75 61.75 0 0 1 20.57-15A63 63 0 0 1 469.92 60a123.92 123.92 0 0 1 17 1.22q8.85 1.23 16.49 2.59t12.94 2.59c3.54.82 5.59 1.32 6.13 1.5ZM472.65 173a41.53 41.53 0 0 0 9.94-12.12 66 66 0 0 0 6.54-17.17 85 85 0 0 0 2.32-19.71V84.74q-2.73-.81-8.18-1.91a51.35 51.35 0 0 0-9.81-1.09q-10.35 0-17 3.55a28.75 28.75 0 0 0-10.76 9.81 40.9 40.9 0 0 0-5.72 15 104.32 104.32 0 0 0-1.64 19.08q0 9.54.55 18.25a59.53 59.53 0 0 0 2.86 15.57 24.83 24.83 0 0 0 6.68 10.77q4.35 3.95 11.71 4a19.48 19.48 0 0 0 12.51-4.77ZM669.1 62.13l.55 2.18c.18 1.63.45 3.77.82 6.4s.68 5.63.95 9 .41 6.77.41 10.22q0 30.24-4.5 51.09t-13.62 33.78a51.91 51.91 0 0 1-23.16 18.66q-14 5.72-33.11 5.72-21.53 0-30.65-12.4t-9.13-34.19V62.13h31.06v89.64q0 11.44 4.09 18.53t13.9 7.08a21 21 0 0 0 16.34-7.38q6.54-7.37 10.36-19.21a135.81 135.81 0 0 0 5.45-27 285.26 285.26 0 0 0 1.63-30.65c0-3.82-.13-7.58-.41-11.31s-.64-7-1.09-9.94-.77-5.27-1-7.09l-.54-2.72ZM698.66 101.09a66.69 66.69 0 0 1 13.9-23.3 57.7 57.7 0 0 1 20.84-14.17 69.7 69.7 0 0 1 25.89-4.76q12.26 0 20.85 3a38.48 38.48 0 0 1 14 8.18 31.68 31.68 0 0 1 8 12.26 44.33 44.33 0 0 1 2.58 15.26 34.94 34.94 0 0 1-5.44 18.66 50.06 50.06 0 0 1-15.67 15.53A86.35 86.35 0 0 1 759 142.37a129.52 129.52 0 0 1-32.43 4.22 68.75 68.75 0 0 0 2.59 11.86 29.75 29.75 0 0 0 5.18 9.81 23.43 23.43 0 0 0 8.85 6.67 33.15 33.15 0 0 0 13.63 2.45 65.53 65.53 0 0 0 12.8-1.36 102.23 102.23 0 0 0 12.54-3.27q6.81-2.17 13.35-4.9l8.17 19.34a113.11 113.11 0 0 1-15.25 6.27 131.72 131.72 0 0 1-16.35 4.36 97.18 97.18 0 0 1-19.62 1.91q-15.81 0-27-4.77a46.6 46.6 0 0 1-18.25-13.49 55.41 55.41 0 0 1-10.36-21 105.61 105.61 0 0 1-3.27-27.25q.05-18.22 5.08-32.13ZM742 84.33a31.24 31.24 0 0 0-9.4 10.9 50.7 50.7 0 0 0-5 15 113.77 113.77 0 0 0-1.82 16.77 87.34 87.34 0 0 0 22.2-3.41 50.26 50.26 0 0 0 14.85-7.08 27.74 27.74 0 0 0 8.31-9.13 20.82 20.82 0 0 0 2.59-9.81q0-7.91-4.63-12.67t-12.26-4.77q-9-.01-14.84 4.2ZM836.67 190.33q-7.35-8.6-7.35-21.94V5.72L860.38 0v165.4c0 4.18.82 7.08 2.45 8.72s4 2.45 7.09 2.45a52.3 52.3 0 0 0 5.31-.27 35 35 0 0 0 4.77-.82c1.63-.36 3.08-.73 4.36-1.09l3.81 19.61a70.07 70.07 0 0 1-7.9 2.45 62.53 62.53 0 0 1-9 1.77 91.81 91.81 0 0 1-11.72.68q-15.55.02-22.88-8.57ZM902.75 101.09a66.51 66.51 0 0 1 13.89-23.3 57.49 57.49 0 0 1 20.85-14.17 69.64 69.64 0 0 1 25.88-4.76q12.27 0 20.85 3a38.48 38.48 0 0 1 14 8.18 31.68 31.68 0 0 1 8 12.26 44.3 44.3 0 0 1 2.59 15.26 35 35 0 0 1-5.45 18.66 50.06 50.06 0 0 1-15.67 15.53A86 86 0 0 1 963 142.38a129.52 129.52 0 0 1-32.43 4.22 68.75 68.75 0 0 0 2.59 11.86 30 30 0 0 0 5.18 9.81 23.47 23.47 0 0 0 8.86 6.67 33.1 33.1 0 0 0 13.62 2.45 65.61 65.61 0 0 0 12.91-1.39 100.31 100.31 0 0 0 12.53-3.27q6.81-2.17 13.35-4.9l8.18 19.34a115.1 115.1 0 0 1-15.26 6.27 131.72 131.72 0 0 1-16.35 4.36 97.18 97.18 0 0 1-19.62 1.91q-15.81 0-27-4.77a46.6 46.6 0 0 1-18.25-13.49 55.41 55.41 0 0 1-10.36-21 105.61 105.61 0 0 1-3.27-27.25q.02-18.2 5.07-32.11Zm43.32-16.76a31.24 31.24 0 0 0-9.4 10.9 51 51 0 0 0-5 15 115.12 115.12 0 0 0-1.81 16.77 87.34 87.34 0 0 0 22.2-3.41 50.26 50.26 0 0 0 14.85-7.08 27.63 27.63 0 0 0 8.31-9.13 20.82 20.82 0 0 0 2.59-9.81q0-7.91-4.63-12.67t-12.26-4.77q-9-.01-14.85 4.2ZM1085.71 92.92a29.45 29.45 0 0 0-8.72 6.67 35 35 0 0 0-8.72 23.57v74.66h-31.06v-68.66a145.32 145.32 0 0 0-2.18-27.39 127.86 127.86 0 0 0-4.63-17.85 56 56 0 0 0-6.54-12.8l24.52-9.81a71 71 0 0 1 5.18 7.35 85.75 85.75 0 0 1 4.36 9 62.1 62.1 0 0 1 3.54 12.26q5.44-15.8 15.8-22.75a41.09 41.09 0 0 1 23.44-7 44.13 44.13 0 0 1 11.72 1.5q5.44 1.5 5.17 1.5l-8.72 30.24a17.31 17.31 0 0 0-3.13-1.5q-3.4-1.5-10.22-1.5a21.68 21.68 0 0 0-9.81 2.51ZM1163.64 6.81q4.62 5.18 4.63 13.35a20 20 0 0 1-4.77 13.63q-4.77 5.45-14 5.45-8.73 0-13.49-5.32a18.66 18.66 0 0 1-4.8-12.92q0-8.44 4.77-13.9t14.31-5.45q8.71-.02 13.35 5.16Zm-21.8 183.52q-7.63-8.6-7.63-22.21v-106h31.06V165.4q0 6.27 1.91 8.44c1.27 1.46 3.18 2.18 5.72 2.18h2.32a9.93 9.93 0 0 0 2.31-.27 12.69 12.69 0 0 0 2.46-.27l3.27 19.62a21.53 21.53 0 0 1-4.91 1.9 36.7 36.7 0 0 1-6.13 1.37 57.71 57.71 0 0 1-8.31.54q-14.45 0-22.07-8.58ZM1233.39 6.81Q1238 12 1238 20.16a20 20 0 0 1-4.77 13.63q-4.77 5.45-14 5.45-8.71 0-13.48-5.32A18.68 18.68 0 0 1 1201 21q0-8.44 4.77-13.9T1220 1.63q8.74 0 13.39 5.18Zm-21.8 183.52q-7.62-8.6-7.62-22.21v-106h31V165.4c0 4.18.63 7 1.91 8.44a7.24 7.24 0 0 0 5.72 2.18h2.4a10.07 10.07 0 0 0 2.32-.27 12.59 12.59 0 0 0 2.45-.27l3.23 19.62a21.45 21.45 0 0 1-4.9 1.9 36.7 36.7 0 0 1-6.13 1.37 57.71 57.71 0 0 1-8.31.54q-14.45 0-22.07-8.58Z"/></g><g id="favicon"><path d="M160.1 99.83c-5.78 17.61-19.19 25.92-33.31 38.05-14.41 11.2-29.51 26.22-45.49 35.72s-31.08 7.19-45.49-9.6C21.7 148.1 8.28 117.71 2.5 92.58c-5.78-25.81-1.56-38.64 12.84-48 7.12-4.82 16.66-9.12 27.94-13.72s24.31-9.26 38-12 26.75-3.24 38 .12a54.53 54.53 0 0 1 27.93 19.43C161.66 57 165.88 82.9 160.1 99.83Z" fill="#7db921"/><path class="cls-3" d="m54.03 109.93-19.04-.62 14.27 9.99 4.77-9.37z"/><path class="cls-4" d="m62.99 117.39 4.06 18.6-12.41-12.22 8.35-6.38z"/><path class="cls-3" d="m85.62 62.38-49.48-8.17a2.57 2.57 0 0 0-1.77 4.72L72.84 82.7Z"/><path class="cls-4" d="m104.14 77.79 17 47.18a2.56 2.56 0 0 1-4.31 2.59L86.48 94.05Z"/><path d="m112.27 60.31-2.53 12.62a8.26 8.26 0 0 1-2.95 4.85l-49.47 44.68a4.82 4.82 0 0 1-7.34-6.1L85 59.59a8.33 8.33 0 0 1 4.23-3.79l12-4.77a8.24 8.24 0 0 1 11.15 9.28Z" fill="#ef3f0f"/><path d="m112.27 60.31-2.53 12.62a8.26 8.26 0 0 1-2.95 4.85l-49.47 44.68a4.81 4.81 0 0 1-6.34.15l58.69-70.09a8.17 8.17 0 0 1 2.6 7.79Z" fill="#cc2a05"/></g></g></g></svg>